<svg 
 xmlns="http://www.w3.org/2000/svg"
 xmlns:xlink="http://www.w3.org/1999/xlink"
 width="22px" height="20px">
<path fill-rule="evenodd"  fill="rgb(255, 255, 255)"
 d="M2.639,0.009 L2.673,0.009 C3.988,0.009 5.053,1.074 5.053,2.388 L5.053,2.422 C5.053,3.736 3.988,4.801 2.673,4.801 L2.639,4.801 C1.325,4.801 0.261,3.736 0.261,2.422 L0.261,2.388 C0.261,1.074 1.325,0.009 2.639,0.009 Z"/>
<path fill-rule="evenodd"  fill="rgb(255, 255, 255)"
 d="M10.626,0.009 L10.661,0.009 C11.975,0.009 13.039,1.074 13.039,2.388 L13.039,2.422 C13.039,3.736 11.975,4.801 10.661,4.801 L10.626,4.801 C9.312,4.801 8.247,3.736 8.247,2.422 L8.247,2.388 C8.247,1.074 9.312,0.009 10.626,0.009 Z"/>
<path fill-rule="evenodd"  fill="rgb(255, 255, 255)"
 d="M18.613,0.009 L18.648,0.009 C19.961,0.009 21.026,1.074 21.026,2.388 L21.026,2.422 C21.026,3.736 19.961,4.801 18.648,4.801 L18.613,4.801 C17.299,4.801 16.234,3.736 16.234,2.422 L16.234,2.388 C16.234,1.074 17.299,0.009 18.613,0.009 Z"/>
<path fill-rule="evenodd"  fill="rgb(255, 255, 255)"
 d="M2.639,7.197 L2.673,7.197 C3.988,7.197 5.053,8.262 5.053,9.576 L5.053,9.611 C5.053,10.924 3.988,11.989 2.673,11.989 L2.639,11.989 C1.325,11.989 0.261,10.924 0.261,9.611 L0.261,9.576 C0.261,8.262 1.325,7.197 2.639,7.197 Z"/>
<path fill-rule="evenodd"  fill="rgb(255, 255, 255)"
 d="M10.626,7.197 L10.661,7.197 C11.975,7.197 13.039,8.262 13.039,9.576 L13.039,9.611 C13.039,10.924 11.975,11.989 10.661,11.989 L10.626,11.989 C9.312,11.989 8.247,10.924 8.247,9.611 L8.247,9.576 C8.247,8.262 9.312,7.197 10.626,7.197 Z"/>
<path fill-rule="evenodd"  fill="rgb(255, 255, 255)"
 d="M18.613,7.197 L18.648,7.197 C19.961,7.197 21.026,8.262 21.026,9.576 L21.026,9.611 C21.026,10.924 19.961,11.989 18.648,11.989 L18.613,11.989 C17.299,11.989 16.234,10.924 16.234,9.611 L16.234,9.576 C16.234,8.262 17.299,7.197 18.613,7.197 Z"/>
<path fill-rule="evenodd"  fill="rgb(255, 255, 255)"
 d="M2.639,14.385 L2.673,14.385 C3.988,14.385 5.053,15.450 5.053,16.764 L5.053,16.799 C5.053,18.112 3.988,19.178 2.673,19.178 L2.639,19.178 C1.325,19.178 0.261,18.112 0.261,16.799 L0.261,16.764 C0.261,15.450 1.325,14.385 2.639,14.385 Z"/>
<path fill-rule="evenodd"  fill="rgb(255, 255, 255)"
 d="M10.626,14.385 L10.661,14.385 C11.975,14.385 13.039,15.450 13.039,16.764 L13.039,16.799 C13.039,18.112 11.975,19.178 10.661,19.178 L10.626,19.178 C9.312,19.178 8.247,18.112 8.247,16.799 L8.247,16.764 C8.247,15.450 9.312,14.385 10.626,14.385 Z"/>
<path fill-rule="evenodd"  fill="rgb(255, 255, 255)"
 d="M18.613,14.385 L18.648,14.385 C19.961,14.385 21.026,15.450 21.026,16.764 L21.026,16.799 C21.026,18.112 19.961,19.178 18.648,19.178 L18.613,19.178 C17.299,19.178 16.234,18.112 16.234,16.799 L16.234,16.764 C16.234,15.450 17.299,14.385 18.613,14.385 Z"/>
</svg>